<mxfile host="app.diagrams.net" modified="2023-11-24T11:39:28.411Z" agent="Mozilla/5.0 (Windows NT 10.0; Win64; x64) AppleWebKit/537.36 (KHTML, like Gecko) Chrome/119.0.0.0 Safari/537.36" etag="8IlgyOmMwGXVvAzdu5Y5" version="22.1.3" type="google">
  <diagram name="Page-1" id="12hYxIzDBDWua3M_aw_m">
    <mxGraphModel grid="1" page="1" gridSize="10" guides="1" tooltips="1" connect="1" arrows="1" fold="1" pageScale="1" pageWidth="827" pageHeight="1169" math="0" shadow="0">
      <root>
        <mxCell id="0" />
        <mxCell id="1" parent="0" />
        <mxCell id="za7cyBmt1VKmHv4gXJAK-1" value="User" style="rounded=0;whiteSpace=wrap;html=1;" vertex="1" parent="1">
          <mxGeometry x="220" y="80" width="120" height="60" as="geometry" />
        </mxCell>
        <mxCell id="za7cyBmt1VKmHv4gXJAK-2" value="CU" style="rounded=0;whiteSpace=wrap;html=1;" vertex="1" parent="1">
          <mxGeometry x="60" y="80" width="120" height="60" as="geometry" />
        </mxCell>
        <mxCell id="za7cyBmt1VKmHv4gXJAK-7" value="UBudget" style="rounded=0;whiteSpace=wrap;html=1;" vertex="1" parent="1">
          <mxGeometry x="220" y="260" width="120" height="60" as="geometry" />
        </mxCell>
        <mxCell id="za7cyBmt1VKmHv4gXJAK-8" value="" style="endArrow=none;html=1;rounded=0;exitX=0.5;exitY=0;exitDx=0;exitDy=0;" edge="1" parent="1" source="za7cyBmt1VKmHv4gXJAK-7">
          <mxGeometry width="50" height="50" relative="1" as="geometry">
            <mxPoint x="230" y="190" as="sourcePoint" />
            <mxPoint x="280" y="140" as="targetPoint" />
          </mxGeometry>
        </mxCell>
        <mxCell id="za7cyBmt1VKmHv4gXJAK-9" value="UC" style="rounded=0;whiteSpace=wrap;html=1;" vertex="1" parent="1">
          <mxGeometry x="380" y="80" width="120" height="60" as="geometry" />
        </mxCell>
        <mxCell id="za7cyBmt1VKmHv4gXJAK-10" value="Community" style="rounded=0;whiteSpace=wrap;html=1;" vertex="1" parent="1">
          <mxGeometry x="540" y="80" width="110" height="60" as="geometry" />
        </mxCell>
        <mxCell id="za7cyBmt1VKmHv4gXJAK-11" value="CBudget" style="rounded=0;whiteSpace=wrap;html=1;" vertex="1" parent="1">
          <mxGeometry x="690" y="80" width="120" height="60" as="geometry" />
        </mxCell>
        <mxCell id="za7cyBmt1VKmHv4gXJAK-12" value="Bill Categ." style="rounded=0;whiteSpace=wrap;html=1;" vertex="1" parent="1">
          <mxGeometry x="850" y="80" width="120" height="60" as="geometry" />
        </mxCell>
        <mxCell id="za7cyBmt1VKmHv4gXJAK-13" value="Value" style="rounded=0;whiteSpace=wrap;html=1;" vertex="1" parent="1">
          <mxGeometry x="60" y="140" width="120" height="20" as="geometry" />
        </mxCell>
        <mxCell id="za7cyBmt1VKmHv4gXJAK-14" value="Challenges" style="rounded=0;whiteSpace=wrap;html=1;" vertex="1" parent="1">
          <mxGeometry x="-100" y="80" width="120" height="60" as="geometry" />
        </mxCell>
        <mxCell id="za7cyBmt1VKmHv4gXJAK-15" value="UBill Budget" style="rounded=0;whiteSpace=wrap;html=1;" vertex="1" parent="1">
          <mxGeometry x="407" y="260" width="120" height="60" as="geometry" />
        </mxCell>
        <mxCell id="za7cyBmt1VKmHv4gXJAK-16" value="C Bill Budget" style="rounded=0;whiteSpace=wrap;html=1;" vertex="1" parent="1">
          <mxGeometry x="690" y="200" width="120" height="60" as="geometry" />
        </mxCell>
        <mxCell id="za7cyBmt1VKmHv4gXJAK-17" value="Bill" style="rounded=0;whiteSpace=wrap;html=1;" vertex="1" parent="1">
          <mxGeometry x="690" y="302" width="120" height="60" as="geometry" />
        </mxCell>
        <mxCell id="za7cyBmt1VKmHv4gXJAK-19" value="" style="endArrow=none;html=1;rounded=0;entryX=0;entryY=0.5;entryDx=0;entryDy=0;" edge="1" parent="1" target="za7cyBmt1VKmHv4gXJAK-2">
          <mxGeometry width="50" height="50" relative="1" as="geometry">
            <mxPoint x="20" y="110" as="sourcePoint" />
            <mxPoint x="70" y="60" as="targetPoint" />
          </mxGeometry>
        </mxCell>
        <mxCell id="za7cyBmt1VKmHv4gXJAK-20" value="" style="endArrow=none;html=1;rounded=0;entryX=0;entryY=0.5;entryDx=0;entryDy=0;" edge="1" parent="1" target="za7cyBmt1VKmHv4gXJAK-1">
          <mxGeometry width="50" height="50" relative="1" as="geometry">
            <mxPoint x="180" y="110" as="sourcePoint" />
            <mxPoint x="230" y="60" as="targetPoint" />
          </mxGeometry>
        </mxCell>
        <mxCell id="za7cyBmt1VKmHv4gXJAK-21" value="" style="endArrow=none;html=1;rounded=0;entryX=0;entryY=0.5;entryDx=0;entryDy=0;" edge="1" parent="1">
          <mxGeometry width="50" height="50" relative="1" as="geometry">
            <mxPoint x="340" y="109" as="sourcePoint" />
            <mxPoint x="380" y="109" as="targetPoint" />
          </mxGeometry>
        </mxCell>
        <mxCell id="za7cyBmt1VKmHv4gXJAK-22" value="" style="endArrow=none;html=1;rounded=0;entryX=0;entryY=0.5;entryDx=0;entryDy=0;" edge="1" parent="1" target="za7cyBmt1VKmHv4gXJAK-10">
          <mxGeometry width="50" height="50" relative="1" as="geometry">
            <mxPoint x="500" y="110" as="sourcePoint" />
            <mxPoint x="550" y="60" as="targetPoint" />
          </mxGeometry>
        </mxCell>
        <mxCell id="za7cyBmt1VKmHv4gXJAK-23" value="" style="endArrow=none;html=1;rounded=0;entryX=0;entryY=0.5;entryDx=0;entryDy=0;" edge="1" parent="1" target="za7cyBmt1VKmHv4gXJAK-11">
          <mxGeometry width="50" height="50" relative="1" as="geometry">
            <mxPoint x="650" y="110" as="sourcePoint" />
            <mxPoint x="700" y="60" as="targetPoint" />
          </mxGeometry>
        </mxCell>
        <mxCell id="za7cyBmt1VKmHv4gXJAK-24" value="" style="endArrow=none;html=1;rounded=0;entryX=0;entryY=0.5;entryDx=0;entryDy=0;" edge="1" parent="1" target="za7cyBmt1VKmHv4gXJAK-12">
          <mxGeometry width="50" height="50" relative="1" as="geometry">
            <mxPoint x="810" y="110" as="sourcePoint" />
            <mxPoint x="860" y="60" as="targetPoint" />
          </mxGeometry>
        </mxCell>
        <mxCell id="za7cyBmt1VKmHv4gXJAK-25" value="" style="endArrow=none;html=1;rounded=0;" edge="1" parent="1">
          <mxGeometry width="50" height="50" relative="1" as="geometry">
            <mxPoint x="476.5" y="170" as="sourcePoint" />
            <mxPoint x="476.5" y="140" as="targetPoint" />
          </mxGeometry>
        </mxCell>
        <mxCell id="za7cyBmt1VKmHv4gXJAK-27" value="" style="endArrow=none;html=1;rounded=0;" edge="1" parent="1">
          <mxGeometry width="50" height="50" relative="1" as="geometry">
            <mxPoint x="580" y="166.77419354838707" as="sourcePoint" />
            <mxPoint x="700" y="166" as="targetPoint" />
          </mxGeometry>
        </mxCell>
        <mxCell id="za7cyBmt1VKmHv4gXJAK-28" value="" style="endArrow=none;html=1;rounded=0;entryX=0.083;entryY=1.1;entryDx=0;entryDy=0;entryPerimeter=0;" edge="1" parent="1">
          <mxGeometry width="50" height="50" relative="1" as="geometry">
            <mxPoint x="700" y="165" as="sourcePoint" />
            <mxPoint x="699.96" y="141" as="targetPoint" />
          </mxGeometry>
        </mxCell>
        <mxCell id="za7cyBmt1VKmHv4gXJAK-29" value="" style="endArrow=none;html=1;rounded=0;" edge="1" parent="1" target="za7cyBmt1VKmHv4gXJAK-18">
          <mxGeometry width="50" height="50" relative="1" as="geometry">
            <mxPoint x="476" y="170" as="sourcePoint" />
            <mxPoint x="700" y="170" as="targetPoint" />
          </mxGeometry>
        </mxCell>
        <mxCell id="za7cyBmt1VKmHv4gXJAK-18" value="UCB" style="rounded=0;whiteSpace=wrap;html=1;" vertex="1" parent="1">
          <mxGeometry x="510" y="153" width="70" height="30" as="geometry" />
        </mxCell>
        <mxCell id="za7cyBmt1VKmHv4gXJAK-30" value="" style="endArrow=none;html=1;rounded=0;" edge="1" parent="1">
          <mxGeometry width="50" height="50" relative="1" as="geometry">
            <mxPoint x="280" y="400" as="sourcePoint" />
            <mxPoint x="280" y="320" as="targetPoint" />
          </mxGeometry>
        </mxCell>
        <mxCell id="za7cyBmt1VKmHv4gXJAK-31" value="" style="endArrow=none;html=1;rounded=0;" edge="1" parent="1">
          <mxGeometry width="50" height="50" relative="1" as="geometry">
            <mxPoint x="635" y="404.3650793650794" as="sourcePoint" />
            <mxPoint x="910" y="400" as="targetPoint" />
          </mxGeometry>
        </mxCell>
        <mxCell id="za7cyBmt1VKmHv4gXJAK-32" value="" style="endArrow=none;html=1;rounded=0;" edge="1" parent="1" source="za7cyBmt1VKmHv4gXJAK-51">
          <mxGeometry width="50" height="50" relative="1" as="geometry">
            <mxPoint x="920" y="400" as="sourcePoint" />
            <mxPoint x="920" y="140" as="targetPoint" />
          </mxGeometry>
        </mxCell>
        <mxCell id="za7cyBmt1VKmHv4gXJAK-33" value="" style="endArrow=none;html=1;rounded=0;exitX=0.583;exitY=0;exitDx=0;exitDy=0;exitPerimeter=0;" edge="1" parent="1" source="za7cyBmt1VKmHv4gXJAK-16">
          <mxGeometry width="50" height="50" relative="1" as="geometry">
            <mxPoint x="710" y="190" as="sourcePoint" />
            <mxPoint x="760" y="140" as="targetPoint" />
          </mxGeometry>
        </mxCell>
        <mxCell id="za7cyBmt1VKmHv4gXJAK-34" value="" style="endArrow=none;html=1;rounded=0;exitX=0.575;exitY=0.05;exitDx=0;exitDy=0;exitPerimeter=0;" edge="1" parent="1" source="za7cyBmt1VKmHv4gXJAK-17">
          <mxGeometry width="50" height="50" relative="1" as="geometry">
            <mxPoint x="710" y="310" as="sourcePoint" />
            <mxPoint x="760" y="260" as="targetPoint" />
          </mxGeometry>
        </mxCell>
        <mxCell id="za7cyBmt1VKmHv4gXJAK-35" value="" style="endArrow=none;html=1;rounded=0;entryX=-0.033;entryY=0.65;entryDx=0;entryDy=0;entryPerimeter=0;" edge="1" parent="1" target="za7cyBmt1VKmHv4gXJAK-15">
          <mxGeometry width="50" height="50" relative="1" as="geometry">
            <mxPoint x="340" y="300" as="sourcePoint" />
            <mxPoint x="390" y="250" as="targetPoint" />
          </mxGeometry>
        </mxCell>
        <mxCell id="za7cyBmt1VKmHv4gXJAK-36" value="" style="endArrow=none;html=1;rounded=0;" edge="1" parent="1">
          <mxGeometry width="50" height="50" relative="1" as="geometry">
            <mxPoint x="480" y="360" as="sourcePoint" />
            <mxPoint x="480" y="320" as="targetPoint" />
          </mxGeometry>
        </mxCell>
        <mxCell id="za7cyBmt1VKmHv4gXJAK-37" value="" style="endArrow=none;html=1;rounded=0;entryX=0;entryY=1;entryDx=0;entryDy=0;" edge="1" parent="1" target="za7cyBmt1VKmHv4gXJAK-17">
          <mxGeometry width="50" height="50" relative="1" as="geometry">
            <mxPoint x="480" y="360" as="sourcePoint" />
            <mxPoint x="560" y="310" as="targetPoint" />
          </mxGeometry>
        </mxCell>
        <mxCell id="za7cyBmt1VKmHv4gXJAK-52" value="" style="endArrow=none;html=1;rounded=0;" edge="1" parent="1" target="za7cyBmt1VKmHv4gXJAK-51">
          <mxGeometry width="50" height="50" relative="1" as="geometry">
            <mxPoint x="910" y="400" as="sourcePoint" />
            <mxPoint x="920" y="140" as="targetPoint" />
          </mxGeometry>
        </mxCell>
        <mxCell id="za7cyBmt1VKmHv4gXJAK-51" value="Categories" style="rounded=0;whiteSpace=wrap;html=1;" vertex="1" parent="1">
          <mxGeometry x="850" y="136" width="120" height="20" as="geometry" />
        </mxCell>
        <mxCell id="za7cyBmt1VKmHv4gXJAK-55" value="" style="endArrow=none;html=1;rounded=0;" edge="1" parent="1">
          <mxGeometry width="50" height="50" relative="1" as="geometry">
            <mxPoint x="180" y="120" as="sourcePoint" />
            <mxPoint x="200" y="110" as="targetPoint" />
          </mxGeometry>
        </mxCell>
        <mxCell id="za7cyBmt1VKmHv4gXJAK-56" value="" style="endArrow=none;html=1;rounded=0;" edge="1" parent="1">
          <mxGeometry width="50" height="50" relative="1" as="geometry">
            <mxPoint x="180" y="100" as="sourcePoint" />
            <mxPoint x="200" y="110" as="targetPoint" />
          </mxGeometry>
        </mxCell>
        <mxCell id="za7cyBmt1VKmHv4gXJAK-57" value="" style="endArrow=none;html=1;rounded=0;" edge="1" parent="1">
          <mxGeometry width="50" height="50" relative="1" as="geometry">
            <mxPoint x="500" y="120" as="sourcePoint" />
            <mxPoint x="520" y="110" as="targetPoint" />
          </mxGeometry>
        </mxCell>
        <mxCell id="za7cyBmt1VKmHv4gXJAK-58" value="" style="endArrow=none;html=1;rounded=0;" edge="1" parent="1">
          <mxGeometry width="50" height="50" relative="1" as="geometry">
            <mxPoint x="500" y="100" as="sourcePoint" />
            <mxPoint x="520" y="110" as="targetPoint" />
          </mxGeometry>
        </mxCell>
        <mxCell id="za7cyBmt1VKmHv4gXJAK-61" value="" style="endArrow=none;html=1;rounded=0;" edge="1" parent="1">
          <mxGeometry width="50" height="50" relative="1" as="geometry">
            <mxPoint x="810" y="121" as="sourcePoint" />
            <mxPoint x="830" y="111" as="targetPoint" />
          </mxGeometry>
        </mxCell>
        <mxCell id="za7cyBmt1VKmHv4gXJAK-62" value="" style="endArrow=none;html=1;rounded=0;" edge="1" parent="1">
          <mxGeometry width="50" height="50" relative="1" as="geometry">
            <mxPoint x="810" y="101" as="sourcePoint" />
            <mxPoint x="830" y="111" as="targetPoint" />
          </mxGeometry>
        </mxCell>
        <mxCell id="za7cyBmt1VKmHv4gXJAK-65" value="" style="endArrow=none;html=1;rounded=0;" edge="1" parent="1">
          <mxGeometry width="50" height="50" relative="1" as="geometry">
            <mxPoint x="407" y="309" as="sourcePoint" />
            <mxPoint x="386" y="299" as="targetPoint" />
          </mxGeometry>
        </mxCell>
        <mxCell id="za7cyBmt1VKmHv4gXJAK-66" value="" style="endArrow=none;html=1;rounded=0;" edge="1" parent="1">
          <mxGeometry width="50" height="50" relative="1" as="geometry">
            <mxPoint x="407" y="289" as="sourcePoint" />
            <mxPoint x="386" y="299" as="targetPoint" />
          </mxGeometry>
        </mxCell>
        <mxCell id="za7cyBmt1VKmHv4gXJAK-69" value="" style="endArrow=none;html=1;rounded=0;" edge="1" parent="1">
          <mxGeometry width="50" height="50" relative="1" as="geometry">
            <mxPoint x="509" y="181" as="sourcePoint" />
            <mxPoint x="488" y="171" as="targetPoint" />
          </mxGeometry>
        </mxCell>
        <mxCell id="za7cyBmt1VKmHv4gXJAK-70" value="" style="endArrow=none;html=1;rounded=0;" edge="1" parent="1">
          <mxGeometry width="50" height="50" relative="1" as="geometry">
            <mxPoint x="509" y="161" as="sourcePoint" />
            <mxPoint x="488" y="171" as="targetPoint" />
          </mxGeometry>
        </mxCell>
        <mxCell id="za7cyBmt1VKmHv4gXJAK-72" value="" style="endArrow=none;html=1;rounded=0;" edge="1" parent="1">
          <mxGeometry width="50" height="50" relative="1" as="geometry">
            <mxPoint x="280" y="400" as="sourcePoint" />
            <mxPoint x="650" y="404" as="targetPoint" />
          </mxGeometry>
        </mxCell>
        <mxCell id="za7cyBmt1VKmHv4gXJAK-73" value="" style="endArrow=none;html=1;rounded=0;" edge="1" parent="1">
          <mxGeometry width="50" height="50" relative="1" as="geometry">
            <mxPoint x="581" y="177" as="sourcePoint" />
            <mxPoint x="601" y="167" as="targetPoint" />
          </mxGeometry>
        </mxCell>
        <mxCell id="za7cyBmt1VKmHv4gXJAK-74" value="" style="endArrow=none;html=1;rounded=0;" edge="1" parent="1">
          <mxGeometry width="50" height="50" relative="1" as="geometry">
            <mxPoint x="581" y="157" as="sourcePoint" />
            <mxPoint x="601" y="167" as="targetPoint" />
          </mxGeometry>
        </mxCell>
        <mxCell id="za7cyBmt1VKmHv4gXJAK-75" value="" style="endArrow=none;html=1;rounded=0;" edge="1" parent="1">
          <mxGeometry width="50" height="50" relative="1" as="geometry">
            <mxPoint x="690" y="120" as="sourcePoint" />
            <mxPoint x="669" y="110" as="targetPoint" />
          </mxGeometry>
        </mxCell>
        <mxCell id="za7cyBmt1VKmHv4gXJAK-76" value="" style="endArrow=none;html=1;rounded=0;" edge="1" parent="1">
          <mxGeometry width="50" height="50" relative="1" as="geometry">
            <mxPoint x="690" y="100" as="sourcePoint" />
            <mxPoint x="669" y="110" as="targetPoint" />
          </mxGeometry>
        </mxCell>
        <mxCell id="za7cyBmt1VKmHv4gXJAK-81" value="" style="endArrow=none;html=1;rounded=0;" edge="1" parent="1">
          <mxGeometry width="50" height="50" relative="1" as="geometry">
            <mxPoint x="379" y="119" as="sourcePoint" />
            <mxPoint x="358" y="109" as="targetPoint" />
          </mxGeometry>
        </mxCell>
        <mxCell id="za7cyBmt1VKmHv4gXJAK-82" value="" style="endArrow=none;html=1;rounded=0;" edge="1" parent="1">
          <mxGeometry width="50" height="50" relative="1" as="geometry">
            <mxPoint x="379" y="99" as="sourcePoint" />
            <mxPoint x="358" y="109" as="targetPoint" />
          </mxGeometry>
        </mxCell>
        <mxCell id="za7cyBmt1VKmHv4gXJAK-83" value="" style="endArrow=none;html=1;rounded=0;" edge="1" parent="1">
          <mxGeometry width="50" height="50" relative="1" as="geometry">
            <mxPoint x="480" y="340" as="sourcePoint" />
            <mxPoint x="500" y="320" as="targetPoint" />
          </mxGeometry>
        </mxCell>
        <mxCell id="za7cyBmt1VKmHv4gXJAK-84" value="" style="endArrow=none;html=1;rounded=0;" edge="1" parent="1">
          <mxGeometry width="50" height="50" relative="1" as="geometry">
            <mxPoint x="480" y="340" as="sourcePoint" />
            <mxPoint x="460" y="320" as="targetPoint" />
          </mxGeometry>
        </mxCell>
        <mxCell id="za7cyBmt1VKmHv4gXJAK-85" value="" style="endArrow=none;html=1;rounded=0;" edge="1" parent="1">
          <mxGeometry width="50" height="50" relative="1" as="geometry">
            <mxPoint x="760" y="280" as="sourcePoint" />
            <mxPoint x="780" y="260" as="targetPoint" />
          </mxGeometry>
        </mxCell>
        <mxCell id="za7cyBmt1VKmHv4gXJAK-86" value="" style="endArrow=none;html=1;rounded=0;" edge="1" parent="1">
          <mxGeometry width="50" height="50" relative="1" as="geometry">
            <mxPoint x="760" y="280" as="sourcePoint" />
            <mxPoint x="740" y="260" as="targetPoint" />
          </mxGeometry>
        </mxCell>
        <mxCell id="za7cyBmt1VKmHv4gXJAK-87" value="" style="endArrow=none;html=1;rounded=0;" edge="1" parent="1">
          <mxGeometry width="50" height="50" relative="1" as="geometry">
            <mxPoint x="740" y="200" as="sourcePoint" />
            <mxPoint x="760" y="180" as="targetPoint" />
          </mxGeometry>
        </mxCell>
        <mxCell id="za7cyBmt1VKmHv4gXJAK-88" value="" style="endArrow=none;html=1;rounded=0;exitX=0.75;exitY=0;exitDx=0;exitDy=0;" edge="1" parent="1" source="za7cyBmt1VKmHv4gXJAK-16">
          <mxGeometry width="50" height="50" relative="1" as="geometry">
            <mxPoint x="710" y="230" as="sourcePoint" />
            <mxPoint x="760" y="180" as="targetPoint" />
          </mxGeometry>
        </mxCell>
        <mxCell id="N5bdAxy3rJSJd2odw1Bz-1" value="" style="endArrow=none;html=1;rounded=0;" edge="1" parent="1">
          <mxGeometry width="50" height="50" relative="1" as="geometry">
            <mxPoint x="260" y="260" as="sourcePoint" />
            <mxPoint x="280" y="240" as="targetPoint" />
          </mxGeometry>
        </mxCell>
        <mxCell id="N5bdAxy3rJSJd2odw1Bz-2" value="" style="endArrow=none;html=1;rounded=0;exitX=0.75;exitY=0;exitDx=0;exitDy=0;" edge="1" parent="1">
          <mxGeometry width="50" height="50" relative="1" as="geometry">
            <mxPoint x="301" y="260" as="sourcePoint" />
            <mxPoint x="281" y="240" as="targetPoint" />
          </mxGeometry>
        </mxCell>
        <mxCell id="N5bdAxy3rJSJd2odw1Bz-3" value="" style="endArrow=none;html=1;rounded=0;" edge="1" parent="1">
          <mxGeometry width="50" height="50" relative="1" as="geometry">
            <mxPoint x="280" y="340" as="sourcePoint" />
            <mxPoint x="260" y="320" as="targetPoint" />
          </mxGeometry>
        </mxCell>
        <mxCell id="N5bdAxy3rJSJd2odw1Bz-4" value="" style="endArrow=none;html=1;rounded=0;" edge="1" parent="1">
          <mxGeometry width="50" height="50" relative="1" as="geometry">
            <mxPoint x="280" y="340" as="sourcePoint" />
            <mxPoint x="300" y="320" as="targetPoint" />
          </mxGeometry>
        </mxCell>
      </root>
    </mxGraphModel>
  </diagram>
</mxfile>
